<svg width="400" height="300" xmlns="http://www.w3.org/2000/svg">
  <rect width="400" height="300" fill="#e3f2fd"/>
  <!-- City skyline silhouette -->
  <polygon points="50,200 70,180 90,190 110,170 130,185 150,160 170,175 190,150 210,165 230,140 250,155 270,130 290,145 310,120 330,135 350,110 350,200 50,200" fill="#1976d2"/>
  <!-- Buildings -->
  <rect x="60" y="160" width="20" height="40" fill="#0d47a1"/>
  <rect x="100" y="140" width="25" height="60" fill="#1565c0"/>
  <rect x="140" y="120" width="18" height="80" fill="#0d47a1"/>
  <rect x="180" y="100" width="22" height="100" fill="#1565c0"/>
  <text x="200" y="50" text-anchor="middle" font-family="Arial, sans-serif" font-size="16" fill="#1976d2" font-weight="bold">Neighborhood</text>
  <text x="200" y="280" text-anchor="middle" font-family="Arial, sans-serif" font-size="12" fill="#2196f3">Placeholder Image</text>
</svg>
